<?xml version="1.0" encoding="utf-8"?>
<!-- Svg Vector Icons : http://www.onlinewebfonts.com/icon -->
<!DOCTYPE svg PUBLIC "-//W3C//DTD SVG 1.1//EN" "http://www.w3.org/Graphics/SVG/1.1/DTD/svg11.dtd">
<svg version="1.1" xmlns="http://www.w3.org/2000/svg" xmlns:xlink="http://www.w3.org/1999/xlink" x="0px" y="0px" viewBox="0 0 1000 1000" enable-background="new 0 0 1000 1000" xml:space="preserve">
<metadata> Svg Vector Icons : http://www.onlinewebfonts.com/icon </metadata>
<g><path d="M500,10C229.4,10,10,229.4,10,500s219.4,490,490,490s490-219.4,490-490S770.7,10,500,10z M500,947.4C253,947.4,52.6,747,52.6,500C52.6,253,253,52.6,500,52.6C747,52.6,947.4,253,947.4,500C947.4,747.2,747.2,947.4,500,947.4z"/><path d="M397.8,597.4c-19.9,0-36.7-7.9-45.1-24c38.9-6.7,65-42,65-94.9c0-58.5-32.4-94.4-78.7-94.4c-46.2,0-78.4,35.5-78.4,94.4c0,54.1,26.9,89.6,66.9,95.2c10.6,25.2,33.9,43.4,67.7,43.4c10.9,0,20.7-2.3,26.3-4.2l-4.4-18.2C412.2,595.9,406,597.4,397.8,597.4z M339.1,554c-32.8,0-54.3-29.7-54.3-75.6c0-45.6,21.5-73.9,54.3-73.9s54.3,28.2,54.3,73.9C393.4,524.3,371.9,554,339.1,554z"/><path d="M595.8,471.9h-21.5c-5.6,21.1-14.6,39.2-25.7,54.3c-17.3-14.6-34.5-32.8-46.4-51.6c20.5-14.8,41.4-30.3,41.4-54.3c0-21.5-13.4-36.4-36.1-36.4c-25.5,0-42.6,19-42.6,43.4c0,13.4,4.4,28,12.1,43.1c-18.8,12.9-36.1,28.2-36.1,52.9c0,29.7,22.7,51,56,51c21.5,0,38.9-8.4,52.9-21.1c14.8,10.4,29.4,17.3,42.2,21.1l6.1-19c-10-2.8-21.9-9-34.5-17.6C578.1,518.4,588.5,495.9,595.8,471.9z M507.3,400.5c12.3,0,17.3,9.6,17.3,20.1c0,16.3-14.6,27.4-31.3,38.6c-5.3-11.2-8.7-22.1-8.7-32.2C484.7,412,493.7,400.5,507.3,400.5z M499.2,555.9c-20.1,0-36.1-13.4-36.1-33.9c0-14.2,10-25.2,23-35.5c12.9,19.6,30.3,38.9,48.2,54.6C523.6,550.2,511.8,555.9,499.2,555.9z"/><path d="M664.4,387.3l-62.2,183.6H626l17.6-56h66.9l17.6,56h24.6l-62.2-183.6H664.4z M704.7,496.3h-55.1l9-28c6.5-20.5,12.3-40.6,18.2-61.8h1.1c5.9,21.3,11.7,41.4,18.2,61.8L704.7,496.3z"/></g>
</svg>