<?xml version="1.0" standalone="no"?>
<!DOCTYPE svg PUBLIC "-//W3C//DTD SVG 20010904//EN"
 "http://www.w3.org/TR/2001/REC-SVG-20010904/DTD/svg10.dtd">
<svg version="1.0" xmlns="http://www.w3.org/2000/svg"
 width="777.000000pt" height="751.000000pt" viewBox="0 0 777.000000 751.000000"
 preserveAspectRatio="xMidYMid meet">
<metadata>
Created by potrace 1.16, written by Peter Selinger 2001-2019
</metadata>
<g transform="translate(0.000000,751.000000) scale(0.100000,-0.100000)"
fill="#000000" stroke="none">
<path d="M3520 7499 c-1115 -110 -2099 -645 -2756 -1499 -402 -522 -647 -1114
-741 -1786 -26 -186 -26 -721 0 -914 67 -494 215 -939 452 -1355 551 -970
1516 -1656 2639 -1874 298 -58 389 -66 771 -66 375 0 471 8 750 61 607 117
1157 359 1640 722 766 576 1287 1418 1445 2337 64 373 68 848 10 1202 -102
619 -345 1180 -724 1673 -661 858 -1660 1399 -2771 1500 -129 12 -592 11 -715
-1z m732 -355 c403 -40 782 -142 1148 -310 963 -440 1667 -1272 1920 -2268 73
-285 100 -506 100 -811 0 -298 -27 -521 -95 -795 -152 -606 -459 -1140 -913
-1587 -578 -571 -1328 -920 -2160 -1008 -251 -27 -615 -20 -872 16 -1319 183
-2429 1077 -2849 2294 -128 371 -181 684 -181 1080 0 538 114 1016 355 1490
318 628 811 1133 1440 1477 635 348 1372 496 2107 422z"/>
<path d="M3165 6081 c-163 -46 -269 -146 -332 -310 -34 -89 -44 -282 -19 -381
51 -202 175 -329 369 -376 65 -16 68 -18 88 -63 51 -116 187 -189 385 -207
l71 -7 17 64 c10 34 20 68 23 75 3 8 -23 15 -78 24 -101 14 -178 42 -209 75
-28 29 -23 35 45 60 197 72 315 261 315 510 0 274 -143 479 -375 540 -78 20
-223 18 -300 -4z m247 -171 c49 -14 115 -65 149 -115 73 -108 87 -311 29 -441
-46 -106 -150 -175 -265 -176 -187 -1 -301 122 -313 338 -10 187 54 320 183
380 55 26 151 32 217 14z"/>
<path d="M4246 5911 c-110 -246 -346 -845 -346 -881 0 -6 38 -10 104 -10 l104
0 28 78 c15 42 35 97 45 122 l17 45 218 3 219 2 45 -125 45 -125 108 0 109 0
-7 28 c-21 87 -250 661 -360 905 l-58 127 -97 0 -97 0 -77 -169z m258 -274
c35 -89 67 -172 70 -184 l7 -23 -165 0 c-91 0 -166 1 -166 3 0 4 117 306 145
376 l18 43 14 -26 c8 -15 43 -100 77 -189z"/>
<path d="M3668 4197 c-26 -8 -55 -20 -65 -27 -80 -61 -110 -112 -119 -197 -8
-73 8 -133 53 -201 20 -29 34 -54 32 -56 -2 -1 -25 -17 -50 -34 -60 -40 -96
-83 -127 -151 -21 -46 -24 -64 -20 -135 6 -122 48 -187 154 -240 72 -36 177
-50 273 -37 86 11 150 35 218 83 l47 31 38 -44 c21 -24 38 -47 38 -51 0 -5 47
-8 105 -8 58 0 105 2 105 5 0 12 -57 95 -112 162 l-59 72 25 48 c28 56 66 175
66 208 0 21 -6 23 -75 30 -80 7 -95 3 -95 -24 0 -24 -40 -141 -49 -141 -3 0
-49 43 -101 96 l-95 96 25 16 c60 39 137 129 155 181 41 124 -2 242 -108 295
-69 35 -182 44 -259 23z m177 -161 c52 -52 41 -131 -26 -196 -57 -55 -77 -59
-107 -24 -52 63 -66 138 -37 194 20 39 41 49 98 50 38 0 53 -5 72 -24z m88
-705 c-50 -38 -109 -56 -189 -56 -69 0 -85 3 -116 25 -49 33 -68 69 -68 126 0
59 36 123 88 159 l37 25 133 -132 c121 -122 131 -134 115 -147z"/>
<path d="M2298 2310 c-60 -10 -143 -49 -185 -84 -18 -15 -44 -52 -59 -82 -22
-45 -27 -68 -27 -133 0 -157 58 -220 280 -307 117 -46 154 -65 189 -99 39 -37
44 -46 44 -88 0 -59 -34 -102 -93 -118 -65 -17 -221 -7 -292 20 -95 36 -94 37
-126 -51 l-29 -78 31 -15 c17 -9 65 -25 107 -36 219 -56 454 -21 546 81 53 59
69 114 64 217 -8 163 -73 231 -304 318 -151 57 -204 102 -204 172 0 76 55 113
167 113 72 0 150 -17 204 -44 18 -9 33 -15 34 -14 1 2 14 35 30 73 15 39 29
75 31 81 6 13 -49 39 -125 59 -73 19 -220 27 -283 15z"/>
<path d="M3010 2295 c-8 -2 -32 -6 -52 -10 l-38 -6 0 -513 c0 -465 2 -514 16
-520 35 -13 273 -28 352 -21 352 28 542 217 542 540 0 222 -92 386 -262 469
-105 51 -197 66 -385 65 -87 -1 -165 -3 -173 -4z m335 -176 c174 -32 267 -151
268 -344 2 -157 -46 -258 -151 -321 -63 -38 -138 -54 -254 -54 l-88 0 0 365 0
365 83 0 c46 0 110 -5 142 -11z"/>
<path d="M4030 1760 l0 -530 365 0 365 0 0 90 0 90 -260 0 -260 0 0 145 0 145
215 0 215 0 0 85 0 85 -215 0 -215 0 0 125 0 125 245 0 245 0 0 85 0 85 -350
0 -350 0 0 -530z"/>
<path d="M4830 2205 l0 -85 160 0 160 0 0 -445 0 -445 105 0 105 0 0 445 0
445 165 0 165 0 0 85 0 85 -430 0 -430 0 0 -85z"/>
</g>
</svg>
